<svg width="1937" height="769" viewBox="0 0 1937 769" fill="none" xmlns="http://www.w3.org/2000/svg">
<path d="M1000.44 109.91C995.972 106.176 990.953 103.156 985.56 100.96C980.982 99.0956 976.093 98.1084 971.15 98.0501C965.25 98.0501 960.443 99.4468 956.73 102.24C954.972 103.462 953.543 105.098 952.569 107.005C951.596 108.912 951.108 111.03 951.15 113.17C951.047 115.992 952.048 118.743 953.94 120.84C956.034 123.023 958.517 124.796 961.26 126.07C964.557 127.641 967.983 128.926 971.5 129.91C975.287 130.99 979.043 132.15 982.77 133.39C997.65 138.363 1008.54 144.99 1015.44 153.27C1022.34 161.55 1025.79 172.36 1025.78 185.7C1025.9 194.06 1024.36 202.36 1021.25 210.12C1018.31 217.283 1013.78 223.682 1008 228.83C1001.76 234.268 994.486 238.381 986.61 240.92C977.337 243.916 967.634 245.369 957.89 245.22C935.73 245.22 915.193 238.633 896.28 225.46L915.81 188.73C921.806 194.235 928.617 198.782 936 202.21C942.202 205.057 948.936 206.563 955.76 206.63C963.2 206.63 968.74 204.923 972.38 201.51C976.02 198.097 977.843 194.223 977.85 189.89C977.905 187.527 977.426 185.183 976.45 183.03C975.354 180.898 973.759 179.062 971.8 177.68C969.181 175.81 966.33 174.288 963.32 173.15C959.83 171.75 955.61 170.21 950.65 168.5C944.75 166.64 938.977 164.587 933.33 162.34C927.84 160.193 922.734 157.17 918.21 153.39C913.681 149.519 910.036 144.721 907.52 139.32C904.8 133.66 903.443 126.49 903.45 117.81C903.336 109.742 904.797 101.729 907.75 94.2201C910.469 87.3953 914.587 81.2158 919.84 76.0801C925.333 70.8666 931.861 66.8666 939 64.3401C947.09 61.4536 955.631 60.0379 964.22 60.1601C973.401 60.2252 982.538 61.4346 991.42 63.7601C1000.88 66.1647 1010.02 69.7177 1018.62 74.3401L1000.44 109.91Z" fill="black"/>
<path d="M1096.92 156.18L1033 65H1087.4L1119.95 112.89L1152.26 65H1206.66L1142.49 156.14V240.3H1096.92V156.18Z" fill="black"/>
<path d="M1310.82 109.91C1306.35 106.176 1301.33 103.156 1295.94 100.96C1291.36 99.0955 1286.47 98.1083 1281.53 98.05C1275.63 98.05 1270.82 99.4467 1267.11 102.24C1265.35 103.462 1263.92 105.098 1262.95 107.005C1261.98 108.912 1261.49 111.03 1261.53 113.17C1261.43 115.992 1262.43 118.743 1264.32 120.84C1266.42 123.025 1268.9 124.799 1271.65 126.07C1274.94 127.643 1278.37 128.928 1281.88 129.91C1285.67 130.99 1289.42 132.15 1293.15 133.39C1308.03 138.363 1318.92 144.99 1325.82 153.27C1332.72 161.55 1336.17 172.36 1336.16 185.7C1336.28 194.059 1334.74 202.36 1331.63 210.12C1328.69 217.283 1324.16 223.681 1318.38 228.83C1312.15 234.267 1304.87 238.38 1297 240.92C1287.73 243.916 1278.02 245.369 1268.28 245.22C1246.12 245.22 1225.58 238.633 1206.67 225.46L1226.2 188.73C1232.21 194.239 1239.03 198.786 1246.43 202.21C1252.63 205.057 1259.37 206.563 1266.19 206.63C1273.63 206.63 1279.17 204.923 1282.81 201.51C1286.45 198.097 1288.27 194.223 1288.28 189.89C1288.33 187.527 1287.86 185.182 1286.88 183.03C1285.78 180.898 1284.19 179.062 1282.23 177.68C1279.61 175.812 1276.76 174.29 1273.75 173.15C1270.26 171.75 1266.04 170.21 1261.08 168.5C1255.18 166.64 1249.41 164.587 1243.76 162.34C1238.27 160.192 1233.16 157.17 1228.64 153.39C1224.11 149.519 1220.47 144.721 1217.95 139.32C1215.23 133.66 1213.87 126.49 1213.88 117.81C1213.77 109.742 1215.23 101.729 1218.18 94.22C1220.9 87.3951 1225.02 81.2157 1230.27 76.08C1235.73 70.8783 1242.23 66.879 1249.33 64.34C1257.42 61.4544 1265.97 60.0388 1274.56 60.16C1283.74 60.2251 1292.88 61.4345 1301.76 63.76C1311.22 66.1646 1320.36 69.7176 1328.96 74.34L1310.82 109.91Z" fill="black"/>
<path d="M1427.77 103.63V240.34H1382.2V103.63H1344.77V65H1465.2V103.59L1427.77 103.63Z" fill="black"/>
<path d="M1585.16 103.63H1531V132.93H1582.15V171.52H1531V201.75H1585.17V240.34H1485.44V65H1585.17L1585.16 103.63Z" fill="black"/>
<path d="M1605.39 240.34L1635.15 65H1680.25L1715.36 158.46L1750.24 65H1795.34L1825.1 240.3H1779.76L1764.65 139.4L1723.27 240.3H1705.13L1665.84 139.4L1650.73 240.3L1605.39 240.34Z" fill="black"/>
<path d="M956.49 273.29L1007.85 402.8L1059.48 273.29H1119.59L1029.85 486H985.85L896.39 273.29H956.49Z" fill="black"/>
<path d="M1262.92 320.13H1197.18V355.68H1259.25V402.52H1197.18V439.2H1262.92V486H1141.87V273.29H1262.92V320.13Z" fill="black"/>
<path d="M1383.4 320.13V486H1328.1V320.13H1282.67V273.29H1428.83V320.13H1383.4Z" fill="black"/>
<path d="M1556.93 449.08H1477.93L1465.23 486.08H1406.23L1487.23 273.33H1547.61L1628.61 486.08H1569.61L1556.93 449.08ZM1542.26 407.08L1517.43 336.25L1492.6 407L1542.26 407.08Z" fill="black"/>
<path d="M1824.14 486H1755.29L1702.53 404.17V486H1647.23V273.29H1733.23C1745.09 273.29 1755.42 275.03 1764.23 278.51C1772.26 281.46 1779.54 286.134 1785.56 292.204C1791.58 298.274 1796.19 305.592 1799.08 313.64C1802.04 321.775 1803.52 330.374 1803.45 339.03C1803.45 355.21 1799.55 368.333 1791.74 378.4C1783.93 388.467 1772.41 395.283 1757.18 398.85L1824.14 486ZM1702.53 368.38H1713C1723.91 368.38 1732.28 366.123 1738.11 361.61C1743.94 357.097 1746.85 350.607 1746.86 342.14C1746.86 333.673 1743.94 327.183 1738.11 322.67C1732.28 318.157 1723.91 315.9 1713 315.9H1702.56L1702.53 368.38Z" fill="black"/>
<path d="M897.72 519.33H971.25C983.89 519.255 996.394 521.937 1007.89 527.19C1019.06 532.272 1029.2 539.363 1037.81 548.11C1046.4 556.889 1053.25 567.214 1058 578.54C1062.83 590.015 1065.33 602.337 1065.35 614.788C1065.37 627.239 1062.91 639.569 1058.12 651.06C1053.46 662.423 1046.67 672.792 1038.12 681.61C1029.54 690.41 1019.39 697.532 1008.2 702.61C996.623 707.886 984.032 710.569 971.31 710.47H897.72V519.33ZM947.41 668.43H958.82C966.702 668.564 974.537 667.186 981.9 664.37C988.319 661.889 994.145 658.087 999 653.21C1003.7 648.404 1007.33 642.658 1009.65 636.35C1012.16 629.492 1013.41 622.234 1013.33 614.93C1013.39 607.656 1012.1 600.435 1009.53 593.63C1007.16 587.215 1003.45 581.382 998.636 576.526C993.823 571.67 988.024 567.903 981.63 565.48C974.352 562.683 966.606 561.305 958.81 561.42H947.4L947.41 668.43Z" fill="black"/>
<path d="M1201 677.3H1130L1118.59 710.52H1065.59L1138.36 519.33H1192.63L1265.4 710.52H1212.4L1201 677.3ZM1187.82 639.52L1165.5 575.88L1143.19 639.52H1187.82Z" fill="black"/>
<path d="M1369.08 603.52H1467.72C1467.76 612.745 1467.34 621.967 1466.45 631.15C1465.7 639.02 1463.99 646.769 1461.38 654.23C1458.05 663.796 1453.17 672.748 1446.93 680.73C1440.94 688.33 1433.69 694.848 1425.5 700C1417.12 705.229 1408.03 709.201 1398.5 711.79C1388.42 714.527 1378.02 715.889 1367.57 715.84C1352.7 715.84 1339.14 713.39 1326.87 708.49C1315.03 703.863 1304.28 696.824 1295.31 687.82C1286.35 678.693 1279.36 667.821 1274.77 655.88C1269.86 643.453 1267.4 629.717 1267.41 614.67C1267.25 600.689 1269.7 586.801 1274.64 573.72C1279.15 561.775 1286.15 550.927 1295.18 541.9C1304.35 532.921 1315.27 525.928 1327.26 521.36C1339.75 516.453 1353.69 514 1369.08 514C1389.03 514 1406.53 518.31 1421.57 526.93C1436.61 535.55 1448.53 548.907 1457.32 567L1410.16 586.53C1405.76 576.05 1400.05 568.527 1393.04 563.96C1385.89 559.354 1377.54 556.97 1369.04 557.11C1362.06 557.016 1355.14 558.446 1348.76 561.3C1342.73 564.045 1337.4 568.116 1333.16 573.21C1328.65 578.738 1325.21 585.06 1323.02 591.85C1320.48 599.71 1319.24 607.931 1319.35 616.19C1319.28 623.828 1320.35 631.435 1322.51 638.76C1324.44 645.337 1327.68 651.458 1332.02 656.76C1336.27 661.858 1341.66 665.894 1347.74 668.55C1354.63 671.469 1362.07 672.897 1369.55 672.74C1374.33 672.754 1379.1 672.2 1383.75 671.09C1388.14 670.068 1392.3 668.266 1396.05 665.77C1399.71 663.293 1402.78 660.047 1405.05 656.26C1407.58 651.89 1409.21 647.065 1409.87 642.06H1369.04L1369.08 603.52Z" fill="black"/>
<path d="M1602.86 561.42H1543.78V593.42H1599.57V635.51H1543.78V668.51H1602.86V710.6H1494.09V519.33H1602.86V561.42Z" fill="black"/>
<path d="M1633.54 710.52V519.33H1683.24L1775 636.22V519.33H1824.45V710.52H1775L1683.21 593.63V710.52H1633.54Z" fill="black"/>
<path d="M162.87 710L75 669.803L374.198 49L461.39 89.2047L162.87 710ZM437.521 710L349.651 669.803L648.841 49L736 89.2047L437.521 710Z" fill="url(#paint0_linear_1_100)"/>
<defs>
<linearGradient id="paint0_linear_1_100" x1="196.783" y1="796.097" x2="607.819" y2="-22.9109" gradientUnits="userSpaceOnUse">
<stop stop-color="#4158D0"/>
<stop offset="0.5" stop-color="#C850C0"/>
<stop offset="1" stop-color="#FFCC70"/>
</linearGradient>
</defs>
</svg>
