<svg id="Layer_1" data-name="Layer 1" xmlns="http://www.w3.org/2000/svg" viewBox="0 0 1000 1000"><title>Text_Logo_Black</title><path d="M173.16,247.7a51.27,51.27,0,0,0-13.5-8.12,35.81,35.81,0,0,0-13.08-2.64q-8,0-13.08,3.8a11.85,11.85,0,0,0-5.06,9.92,9.9,9.9,0,0,0,2.53,7,22,22,0,0,0,6.65,4.74,55.86,55.86,0,0,0,9.28,3.48q5.16,1.49,10.23,3.17,20.25,6.75,29.64,18t9.38,29.43A57.27,57.27,0,0,1,192,338.61a46.12,46.12,0,0,1-12,17,55.43,55.43,0,0,1-19.41,11,80.89,80.89,0,0,1-26.05,3.91q-30.16,0-55.9-17.93l17.72-33.33a71.9,71.9,0,0,0,18.35,12.23,44,44,0,0,0,17.93,4q10.13,0,15.08-4.64t5-10.55a14.15,14.15,0,0,0-1.27-6.22,13.5,13.5,0,0,0-4.21-4.85,33.79,33.79,0,0,0-7.7-4.11q-4.76-1.9-11.5-4.22-8-2.53-15.71-5.59a49.37,49.37,0,0,1-13.71-8.12,37.78,37.78,0,0,1-9.71-12.76q-3.69-7.71-3.69-19.52a56.42,56.42,0,0,1,3.9-21.41,47.64,47.64,0,0,1,11-16.45,48.88,48.88,0,0,1,17.3-10.65,65.4,65.4,0,0,1,22.88-3.8,100.15,100.15,0,0,1,24.68,3.27,108.69,108.69,0,0,1,24.68,9.6Z"/><path d="M260.69,289.68l-58-82.69h49.36l29.53,43.45L310.9,207h49.35L302,289.68V366H260.69Z"/><path d="M454.76,247.7a51.6,51.6,0,0,0-13.5-8.12,35.85,35.85,0,0,0-13.08-2.64q-8,0-13.08,3.8a11.82,11.82,0,0,0-5.06,9.92,9.86,9.86,0,0,0,2.53,7,22,22,0,0,0,6.64,4.74,56.2,56.2,0,0,0,9.28,3.48q5.17,1.49,10.23,3.17,20.25,6.75,29.64,18t9.39,29.43a57.27,57.27,0,0,1-4.12,22.14,46.12,46.12,0,0,1-12,17,55.25,55.25,0,0,1-19.41,11,80.8,80.8,0,0,1-26.05,3.91q-30.16,0-55.89-17.93L378,319.21a71.73,71.73,0,0,0,18.35,12.23,43.94,43.94,0,0,0,17.93,4q10.11,0,15.08-4.64t5-10.55A14.3,14.3,0,0,0,433,314a13.54,13.54,0,0,0-4.22-4.85,33.58,33.58,0,0,0-7.7-4.11c-3.16-1.27-7-2.67-11.49-4.22q-8-2.53-15.72-5.59a49.66,49.66,0,0,1-13.71-8.12,37.76,37.76,0,0,1-9.7-12.76q-3.71-7.71-3.69-19.52a56.23,56.23,0,0,1,3.9-21.41,47.5,47.5,0,0,1,11-16.45A48.84,48.84,0,0,1,399,206.36a65.42,65.42,0,0,1,22.89-3.8,100.21,100.21,0,0,1,24.68,3.27,109.06,109.06,0,0,1,24.68,9.6Z"/><path d="M560.85,242V366H519.51V242h-34V207H594.82v35Z"/><path d="M703.65,242H654.51v26.57h46.4v35h-46.4V331h49.14v35H613.17V207h90.48Z"/><path d="M722,366l27-159h40.92l31.86,84.8L853.42,207h40.92l27,159.05H880.2l-13.71-91.55L829,366H812.49l-35.64-91.55L763.14,366Z"/><path d="M133.29,395.93l46.59,117.5,46.85-117.5h54.53L199.85,589H159.91l-81.15-193Z"/><path d="M411.3,438.42H351.65v32.26H408v42.49H351.65v33.28H411.3V589H301.47v-193H411.3Z"/><path d="M520.61,438.42V589H470.43V438.42H429.22V395.93h132.6v42.49Z"/><path d="M678,555.41H606.36L594.84,589h-53.5l73.47-193H669.6l73.47,193H689.56Zm-13.31-38.14L642.2,453l-22.53,64.26Z"/><path d="M920.47,589H858l-47.87-74.24V589H760v-193H838q16.13,0,28.16,4.73a53,53,0,0,1,31.61,31.88,65.83,65.83,0,0,1,4,23q0,22-10.62,35.72T859.8,509.85ZM810.13,482.2h9.48q14.83,0,22.78-6.15t7.93-17.66q0-11.52-7.93-17.66t-22.78-6.15h-9.48Z"/><path d="M80,619.15h66.72a78.81,78.81,0,0,1,33.24,7.13,90.79,90.79,0,0,1,27.14,19,88,88,0,0,1,18.29,27.61,85.16,85.16,0,0,1,.12,65.79,87.6,87.6,0,0,1-18.18,27.72,89.55,89.55,0,0,1-27.14,19.1,79.32,79.32,0,0,1-33.47,7.13H80Zm45.09,135.27H135.4a56.13,56.13,0,0,0,20.94-3.68,44.87,44.87,0,0,0,15.53-10.12,43.63,43.63,0,0,0,9.66-15.3,54.79,54.79,0,0,0,3.33-19.44,53.36,53.36,0,0,0-3.45-19.32A43.26,43.26,0,0,0,156.11,661a55.46,55.46,0,0,0-20.71-3.68H125.05Z"/><path d="M355.1,762.47H290.68l-10.35,30.14H232.25l66-173.46H347.5l66,173.46H365.45Zm-12-34.28-20.24-57.74-20.25,57.74Z"/><path d="M507.61,695.53H597.1A247.53,247.53,0,0,1,596,720.6a89.14,89.14,0,0,1-4.6,20.94,83.56,83.56,0,0,1-13.11,24,76.65,76.65,0,0,1-19.44,17.48,91.28,91.28,0,0,1-24.5,10.7,105.32,105.32,0,0,1-28.07,3.68,98.75,98.75,0,0,1-36.92-6.67A83.32,83.32,0,0,1,440.67,772,84.74,84.74,0,0,1,422,743a108.2,108.2,0,0,1-.12-74.53,81.31,81.31,0,0,1,18.64-28.87A84.53,84.53,0,0,1,469.66,621q17-6.66,37.95-6.67,27.15,0,47.62,11.73t32.44,36.35l-42.79,17.71q-6-14.25-15.53-20.47a39,39,0,0,0-21.74-6.21,43.63,43.63,0,0,0-18.4,3.79A39.88,39.88,0,0,0,475.06,668a51.82,51.82,0,0,0-9.2,16.91A68.88,68.88,0,0,0,462.52,707a69.75,69.75,0,0,0,2.88,20.47A46.21,46.21,0,0,0,474,743.84a38.79,38.79,0,0,0,14.26,10.69,48.17,48.17,0,0,0,19.78,3.8,54.65,54.65,0,0,0,12.88-1.5A33.67,33.67,0,0,0,532.11,752a27.41,27.41,0,0,0,8.17-8.62,34.76,34.76,0,0,0,4.37-12.88h-37Z"/><path d="M719.71,657.34h-53.6v29h50.61v38.18H666.11v29.91h53.6v38.19H621V619.15h98.69Z"/><path d="M747.55,792.61V619.15h45.09L875.91,725.2V619.15h44.86V792.61H875.91L792.64,686.56V792.61Z"/></svg>