<?xml version="1.0" encoding="UTF-8"?>
<svg  viewBox="0 0 708 109" version="1.1" xmlns="http://www.w3.org/2000/svg" xmlns:xlink="http://www.w3.org/1999/xlink">
    <!-- Generator: Sketch 48.2 (47327) - http://www.bohemiancoding.com/sketch -->
    <title>VF_logo_landscape_grey_RGB</title>
    <desc>Created with Sketch.</desc>
    <defs></defs>
    <g id="LOGO" stroke="none" stroke-width="1" fill="none" fill-rule="evenodd">
        <g id="VF_logo_landscape_grey_RGB">
            <g>
                <g id="Group-33" transform="translate(599.000000, 0.000000)">
                    <path d="M54.779,0.0001 C24.844,0.0001 0.577,24.2671 0.577,54.2021 L108.981,54.2021 C108.981,24.2671 84.714,0.0001 54.779,0.0001" id="Fill-1" fill="#FFDA00"></path>
                    <path d="M54.779,108.404 C24.844,108.404 0.577,84.137 0.577,54.202 L108.981,54.202 C108.981,84.137 84.714,108.404 54.779,108.404" id="Fill-3" fill="#2071B5"></path>
                </g>
                <polygon id="Fill-5" fill="#4E4B48" points="166.0967 24.9032 115.7747 24.9032 115.7747 38.1582 133.6957 38.1582 133.6957 86.7602 149.8957 86.7602 149.8957 38.1582 166.0967 38.1582"></polygon>
                <polygon id="Fill-7" fill="#4E4B48" points="171.741 24.9032 171.741 38.1582 187.942 38.1582 187.942 86.7602 204.142 86.7602 204.142 38.1582 222.063 38.1582 222.063 24.9032"></polygon>
                <polygon id="Fill-9" fill="#4E4B48" points="345.3613 86.7606 345.3613 24.9036 329.8973 24.9036 329.8973 61.9186 302.3303 24.9036 286.8663 24.9036 286.8663 86.7606 302.3303 86.7606 302.3303 50.1926 329.8973 86.7606"></polygon>
                <polygon id="Fill-11" fill="#4E4B48" points="229.9163 86.7607 246.1173 86.7607 275.6553 86.7607 275.6553 73.5057 246.1173 73.5057 246.1173 61.3317 271.1543 61.3317 271.1543 48.0767 246.1173 48.0767 246.1173 38.1587 275.6553 38.1587 275.6553 24.9037 229.9163 24.9037"></polygon>
                <polygon id="Fill-13" fill="#4E4B48" points="357.6868 86.7607 373.8878 86.7607 373.8878 61.7237 400.0388 61.7237 400.0388 48.4677 373.8878 48.4677 373.8878 38.1587 404.8988 38.1587 404.8988 24.9037 357.6868 24.9037"></polygon>
                <polygon id="Fill-15" fill="#4E4B48" points="51.0364 24.9032 33.4194 68.3922 33.2804 68.3922 15.6644 24.9032 0.0004 24.9032 25.3764 86.7602 41.3244 86.7602 66.7004 24.9032"></polygon>
                <polygon id="Fill-17" fill="#4E4B48" points="523.9164 86.7607 568.6484 86.7607 568.6484 73.0287 540.1164 73.0287 540.1164 24.9037 523.9164 24.9037"></polygon>
                <polygon id="Fill-19" fill="#4E4B48" points="472.1956 86.7607 516.9276 86.7607 516.9276 73.0287 488.3956 73.0287 488.3956 24.9037 472.1956 24.9037"></polygon>
                <path d="M424.6915,63.1246 L433.1555,41.9976 L433.2625,41.9976 L441.7575,63.1226 L424.6915,63.1246 Z M451.2635,86.7606 L466.9265,86.7606 L441.1415,24.9036 L440.9395,24.9036 L425.4775,24.9036 L425.2765,24.9036 L399.4905,86.7606 L415.1545,86.7606 L419.5965,75.7146 L446.8215,75.7146 L451.2635,86.7606 Z" id="Fill-21" fill="#4E4B48"></path>
                <path d="M81.4556,63.1246 L89.9196,41.9976 L90.0266,41.9976 L98.5216,63.1226 L81.4556,63.1246 Z M108.0276,86.7606 L123.6906,86.7606 L97.9056,24.9036 L97.7036,24.9036 L82.2416,24.9036 L82.0406,24.9036 L56.2546,86.7606 L71.9186,86.7606 L76.3606,75.7146 L103.5856,75.7146 L108.0276,86.7606 Z" id="Fill-23" fill="#4E4B48"></path>
            </g>
        </g>
    </g>
</svg>