<?xml version="1.0" standalone="no"?>
<!DOCTYPE svg PUBLIC "-//W3C//DTD SVG 20010904//EN"
 "http://www.w3.org/TR/2001/REC-SVG-20010904/DTD/svg10.dtd">
<svg version="1.0" xmlns="http://www.w3.org/2000/svg"
 width="700.000000pt" height="700.000000pt" viewBox="0 0 700.000000 700.000000"
 preserveAspectRatio="xMidYMid meet">
<metadata>
Created by potrace 1.14, written by Peter Selinger 2001-2017
</metadata>
<g transform="translate(0.000000,700.000000) scale(0.100000,-0.100000)"
fill="#000000" stroke="none">
<path d="M3202 6268 c-16 -35 -168 -349 -337 -698 -1135 -2346 -2195 -4554
-2188 -4560 14 -11 744 -343 747 -339 4 4 1321 2747 2063 4294 262 545 479
997 483 1006 7 12 -56 45 -358 184 -202 93 -370 170 -374 172 -3 2 -19 -25
-36 -59z"/>
<path d="M5390 5923 c-494 -1019 -2309 -4778 -2346 -4859 l-23 -52 376 -172
c206 -94 377 -170 379 -168 13 13 2544 5293 2544 5307 0 8 -712 341 -729 341
-4 0 -95 -179 -201 -397z"/>
</g>
</svg>
