<svg width="74" height="76" viewBox="0 0 74 76" fill="none" xmlns="http://www.w3.org/2000/svg">
<path d="M0 18.5C0 8.55888 8.05888 0.5 18 0.5H56C65.9411 0.5 74 8.55888 74 18.5V57.5C74 67.4411 65.9411 75.5 56 75.5H18C8.05887 75.5 0 67.4411 0 57.5V18.5Z" fill="#666666"/>
<path d="M37.006 23.1423C29.3442 23.1423 23.1642 29.5527 23.1642 37.5C23.1642 45.4473 29.3442 51.8577 37.006 51.8577C44.6678 51.8577 50.8479 45.4473 50.8479 37.5C50.8479 29.5527 44.6678 23.1423 37.006 23.1423ZM37.006 46.8344C32.0548 46.8344 28.007 42.6483 28.007 37.5C28.007 32.3517 32.0427 28.1656 37.006 28.1656C41.9693 28.1656 46.005 32.3517 46.005 37.5C46.005 42.6483 41.9573 46.8344 37.006 46.8344ZM54.6426 22.555C54.6426 24.4169 53.197 25.9039 51.4141 25.9039C49.6191 25.9039 48.1855 24.4044 48.1855 22.555C48.1855 20.7056 49.6311 19.2061 51.4141 19.2061C53.197 19.2061 54.6426 20.7056 54.6426 22.555ZM63.8103 25.9539C63.6055 21.4679 62.6176 17.4942 59.4493 14.2203C56.293 10.9464 52.4621 9.92173 48.1373 9.69681C43.68 9.4344 30.32 9.4344 25.8627 9.69681C21.5499 9.90924 17.719 10.9339 14.5507 14.2078C11.3824 17.4817 10.4066 21.4554 10.1897 25.9414C9.93675 30.5648 9.93675 44.4227 10.1897 49.0461C10.3945 53.5321 11.3824 57.5058 14.5507 60.7797C17.719 64.0536 21.5379 65.0783 25.8627 65.3032C30.32 65.5656 43.68 65.5656 48.1373 65.3032C52.4621 65.0908 56.293 64.0661 59.4493 60.7797C62.6056 57.5058 63.5934 53.5321 63.8103 49.0461C64.0632 44.4227 64.0632 30.5773 63.8103 25.9539ZM58.0519 54.007C57.1122 56.4562 55.2931 58.343 52.9199 59.3302C49.3661 60.7922 40.9333 60.4548 37.006 60.4548C33.0788 60.4548 24.6339 60.7797 21.0921 59.3302C18.731 58.3555 16.9119 56.4687 15.9602 54.007C14.5507 50.3207 14.876 41.5736 14.876 37.5C14.876 33.4264 14.5627 24.6668 15.9602 20.993C16.8998 18.5438 18.7189 16.657 21.0921 15.6698C24.646 14.2078 33.0788 14.5452 37.006 14.5452C40.9333 14.5452 49.3781 14.2203 52.9199 15.6698C55.2811 16.6445 57.1002 18.5314 58.0519 20.993C59.4613 24.6793 59.1361 33.4264 59.1361 37.5C59.1361 41.5736 59.4613 50.3332 58.0519 54.007Z" fill="#F2F3FF"/>
</svg>
