<svg id="Layer_1" data-name="Layer 1" xmlns="http://www.w3.org/2000/svg" xmlns:xlink="http://www.w3.org/1999/xlink" viewBox="0 0 2000 1000"><defs><linearGradient id="SvD_Gradient" x1="204.55" y1="980.02" x2="707.54" y2="-22.23" gradientUnits="userSpaceOnUse"><stop offset="0" stop-color="#4158d0"/><stop offset="0.5" stop-color="#c850c0"/><stop offset="1" stop-color="#ffcc70"/></linearGradient></defs><title>Symbol_&amp;amp;_text_Logo_Black copy</title><path d="M1060.8,223.77a56.38,56.38,0,0,0-14.88-9,39.68,39.68,0,0,0-14.42-2.9q-8.84,0-14.41,4.18a13.05,13.05,0,0,0-5.58,10.93,10.86,10.86,0,0,0,2.79,7.67,24.19,24.19,0,0,0,7.32,5.23,61.72,61.72,0,0,0,10.23,3.84q5.7,1.63,11.28,3.49,22.32,7.44,32.67,19.88t10.34,32.43a63.16,63.16,0,0,1-4.53,24.41,50.91,50.91,0,0,1-13.26,18.72A61.18,61.18,0,0,1,1047,354.78a89.25,89.25,0,0,1-28.71,4.3q-33.24,0-61.61-19.76l19.53-36.74a79.17,79.17,0,0,0,20.23,13.49,48.66,48.66,0,0,0,19.76,4.41q11.16,0,16.62-5.11t5.47-11.63a15.76,15.76,0,0,0-1.4-6.86,14.92,14.92,0,0,0-4.65-5.34,37.34,37.34,0,0,0-8.49-4.54q-5.22-2.08-12.67-4.65-8.84-2.79-17.32-6.16a54.3,54.3,0,0,1-15.11-8.95,41.47,41.47,0,0,1-10.69-14.06q-4.08-8.49-4.07-21.51a62.12,62.12,0,0,1,4.3-23.6,52.4,52.4,0,0,1,12.09-18.13A53.79,53.79,0,0,1,999.3,178.2a72.1,72.1,0,0,1,25.23-4.19,110.54,110.54,0,0,1,27.2,3.6,120.41,120.41,0,0,1,27.2,10.58Z"/><path d="M1157.28,270l-63.94-91.14h54.41l32.55,47.9,32.31-47.9H1267L1202.85,270V354.2h-45.57Z"/><path d="M1371.18,223.77a56.38,56.38,0,0,0-14.88-9,39.68,39.68,0,0,0-14.42-2.9q-8.84,0-14.41,4.18a13.05,13.05,0,0,0-5.58,10.93,10.86,10.86,0,0,0,2.79,7.67,24.19,24.19,0,0,0,7.32,5.23,61.72,61.72,0,0,0,10.23,3.84q5.7,1.63,11.28,3.49,22.32,7.44,32.66,19.88t10.35,32.43A63.16,63.16,0,0,1,1392,324a50.91,50.91,0,0,1-13.26,18.72,61.18,61.18,0,0,1-21.39,12.09,89.21,89.21,0,0,1-28.71,4.3q-33.26,0-61.61-19.76l19.53-36.74a79.17,79.17,0,0,0,20.23,13.49,48.66,48.66,0,0,0,19.76,4.41q11.16,0,16.62-5.11t5.47-11.63a15.76,15.76,0,0,0-1.4-6.86,14.92,14.92,0,0,0-4.65-5.34,37.34,37.34,0,0,0-8.49-4.54c-3.48-1.39-7.71-2.94-12.66-4.65q-8.85-2.79-17.33-6.16a54.3,54.3,0,0,1-15.11-8.95,41.47,41.47,0,0,1-10.69-14.06q-4.08-8.49-4.07-21.51a62.12,62.12,0,0,1,4.3-23.6,52.26,52.26,0,0,1,12.09-18.13,53.79,53.79,0,0,1,19.06-11.74,72.1,72.1,0,0,1,25.23-4.19,110.54,110.54,0,0,1,27.2,3.6,120.41,120.41,0,0,1,27.2,10.58Z"/><path d="M1488.13,217.49V354.2h-45.58V217.49h-37.43v-38.6h120.44v38.6Z"/><path d="M1645.52,217.49h-54.17v29.29h51.15v38.6h-51.15V315.6h54.17v38.6h-99.74V178.89h99.74Z"/><path d="M1665.75,354.2l29.76-175.31h45.1l35.11,93.47,34.87-93.47h45.11l29.76,175.31h-45.34L1825,253.29,1783.62,354.2h-18.13L1726.2,253.29,1711.09,354.2Z"/><path d="M1016.85,387.14l51.35,129.52,51.64-129.52h60.1L1090.21,599.9h-44L956.75,387.14Z"/><path d="M1323.28,434h-65.75v35.56h62.08v46.84h-62.08v36.68h65.75V599.9h-121V387.14h121Z"/><path d="M1443.76,434V599.9h-55.3V434H1343V387.14h146.16V434Z"/><path d="M1617.29,562.93h-79l-12.7,37h-59l81-212.76H1608l81,212.76h-59Zm-14.67-42-24.83-70.82L1553,520.89Z"/><path d="M1884.5,599.9h-68.85l-52.76-81.83V599.9h-55.31V387.14h86.06q17.77,0,31,5.22a58.44,58.44,0,0,1,34.85,35.13,72.92,72.92,0,0,1,4.37,25.4q0,24.27-11.71,39.36t-34.56,20.46ZM1762.89,482.23h10.44q16.35,0,25.11-6.77t8.75-19.47q0-12.69-8.75-19.47t-25.11-6.77h-10.44Z"/><path d="M958.07,633.19h73.54a86.72,86.72,0,0,1,36.63,7.86A99.74,99.74,0,0,1,1098.17,662a97.3,97.3,0,0,1,20.16,30.42,93.82,93.82,0,0,1,.12,72.52,96.94,96.94,0,0,1-20,30.56,98.76,98.76,0,0,1-29.92,21,87.33,87.33,0,0,1-36.89,7.86H958.07Zm49.7,149.09h11.41a61.68,61.68,0,0,0,23.08-4.06,49.33,49.33,0,0,0,17.11-11.15A47.68,47.68,0,0,0,1070,750.21a60.38,60.38,0,0,0,3.68-21.43,58.72,58.72,0,0,0-3.81-21.3A47.67,47.67,0,0,0,1042,679.34a60.88,60.88,0,0,0-22.82-4.06h-11.41Z"/><path d="M1261.33,791.16h-71l-11.41,33.21h-53l72.77-191.18H1253l72.78,191.18h-53Zm-13.18-37.78-22.32-63.65-22.31,63.65Z"/><path d="M1429.44,717.37h98.64a275.54,275.54,0,0,1-1.27,27.64,98.48,98.48,0,0,1-5.07,23.07,91.91,91.91,0,0,1-14.46,26.5,84.32,84.32,0,0,1-21.42,19.27,100.54,100.54,0,0,1-27,11.79,116,116,0,0,1-30.93,4.06q-22.32,0-40.7-7.36a91.83,91.83,0,0,1-31.57-20.66,93.55,93.55,0,0,1-20.53-31.95q-7.36-18.63-7.36-41.2a112.28,112.28,0,0,1,7.23-40.95,89.9,89.9,0,0,1,20.54-31.83,93.36,93.36,0,0,1,32.07-20.53q18.76-7.37,41.84-7.36,29.91,0,52.49,12.93t35.75,40.07l-47.16,19.52q-6.6-15.72-17.12-22.57a43,43,0,0,0-24-6.84,48.05,48.05,0,0,0-20.28,4.18,44,44,0,0,0-15.6,11.92,57.24,57.24,0,0,0-10.14,18.64,75.89,75.89,0,0,0-3.68,24.34,77.24,77.24,0,0,0,3.17,22.57,50.84,50.84,0,0,0,9.51,18,42.79,42.79,0,0,0,15.72,11.79,53.07,53.07,0,0,0,21.81,4.18,59.93,59.93,0,0,0,14.2-1.65,37.25,37.25,0,0,0,12.29-5.32,30.27,30.27,0,0,0,9-9.51,38.06,38.06,0,0,0,4.81-14.2h-40.82Z"/><path d="M1663.22,675.28h-59.08v32h55.79v42.09h-55.79v33h59.08v42.09H1554.44V633.19h108.78Z"/><path d="M1693.9,824.37V633.19h49.7l91.79,116.89V633.19h49.44V824.37h-49.44L1743.6,707.48V824.37Z"/><path d="M163.05,874.67,55.52,825.47,421.65,65.78,528.31,115Zm336.1,0-107.54-49.2L757.75,65.78,864.41,115Z" fill="url(#SvD_Gradient)"/></svg>