<?xml version="1.0" encoding="utf-8"?>
<!-- Generator: Adobe Illustrator 16.0.0, SVG Export Plug-In . SVG Version: 6.00 Build 0)  -->
<!DOCTYPE svg PUBLIC "-//W3C//DTD SVG 1.1//EN" "http://www.w3.org/Graphics/SVG/1.1/DTD/svg11.dtd">
<svg version="1.1" id="Lager_1" xmlns="http://www.w3.org/2000/svg" xmlns:xlink="http://www.w3.org/1999/xlink" x="0px" y="0px"
	 width="954.313px" height="104.06px" viewBox="0 0 954.313 104.06" enable-background="new 0 0 954.313 104.06"
	 xml:space="preserve">
<g>
	<path fill="#005C9B" d="M21.892,2.655v38.207h40.272V2.655h21.892V102.2H62.164V59.243H21.892V102.2H0V2.655H21.892z"/>
	<path fill="#005C9B" d="M98.334,40.701c2.042-3.072,4.644-5.541,7.801-7.403c3.156-1.862,6.709-3.188,10.655-3.982
		c3.947-0.791,7.916-1.188,11.911-1.188c3.621,0,7.29,0.258,11.004,0.768c3.714,0.513,7.103,1.513,10.168,3.001
		c3.064,1.488,5.571,3.556,7.522,6.209c1.949,2.649,2.925,6.16,2.925,10.533v37.529l0.02,9.35c0.162,3.672,0.168,3.836,0.82,6.684
		l-19.021-0.003c-0.413-1.601-0.387-1.652-0.568-2.892c-0.168-1.152-0.158-2.867-0.252-4.067c-3.156,3.257-6.87,5.534-11.141,6.835
		c-4.271,1.301-8.634,1.952-13.09,1.952c-3.436,0-6.638-0.419-9.608-1.255c-2.972-0.836-5.572-2.14-7.8-3.908
		c-2.229-1.769-3.969-4.002-5.221-6.703c-1.254-2.697-1.88-5.908-1.88-9.632c0-4.095,0.72-7.468,2.159-10.12
		c1.439-2.652,3.297-4.77,5.572-6.354c2.275-1.582,4.874-2.77,7.799-3.56s5.873-1.417,8.845-1.884
		c2.97-0.465,5.896-0.836,8.774-1.117c2.879-0.277,5.433-0.697,7.661-1.255s3.993-1.372,5.294-2.443
		c1.3-1.071,1.904-2.63,1.811-4.679c0-2.139-0.347-3.837-1.041-5.095c-0.694-1.255-1.62-2.233-2.777-2.93
		c-1.157-0.697-2.5-1.162-4.026-1.394s-3.168-0.352-4.926-0.352c-3.887,0-6.941,0.842-9.161,2.527
		c-2.22,1.684-3.516,4.492-3.886,8.419H94.853C95.13,47.639,96.292,43.773,98.334,40.701z M137.366,68.679
		c-1.252,0.42-2.596,0.769-4.032,1.046c-1.438,0.277-2.944,0.51-4.519,0.697c-1.577,0.187-3.153,0.419-4.728,0.696
		c-1.485,0.277-2.945,0.648-4.381,1.113s-2.688,1.094-3.754,1.885s-1.923,1.788-2.572,2.995c-0.648,1.21-0.973,2.743-0.973,4.602
		c0,1.765,0.324,3.253,0.973,4.46c0.649,1.21,1.528,2.162,2.642,2.859c1.113,0.696,2.411,1.184,3.894,1.465
		c1.482,0.277,3.012,0.416,4.59,0.416c3.892,0,6.904-0.648,9.037-1.953c2.132-1.3,3.708-2.855,4.728-4.669
		c1.02-1.81,1.645-3.646,1.877-5.505c0.232-1.859,0.349-3.347,0.349-4.463v-7.387C139.659,67.679,138.617,68.26,137.366,68.679z"/>
	<path fill="#005C9B" d="M590.796,40.701c2.043-3.072,4.643-5.541,7.801-7.403c3.156-1.862,6.709-3.188,10.656-3.982
		c3.945-0.791,7.914-1.188,11.91-1.188c3.621,0,7.289,0.258,11.004,0.768c3.715,0.513,7.102,1.513,10.168,3.001
		c3.064,1.488,5.572,3.556,7.521,6.209c1.949,2.649,2.926,6.16,2.926,10.533v37.529l0.02,9.35c0.162,3.672,0.168,3.836,0.82,6.684
		l-19.02-0.003c-0.414-1.601-0.389-1.652-0.568-2.892c-0.168-1.152-0.158-2.867-0.252-4.067c-3.156,3.257-6.871,5.534-11.141,6.835
		c-4.271,1.301-8.635,1.952-13.092,1.952c-3.434,0-6.637-0.419-9.607-1.255c-2.973-0.836-5.572-2.14-7.799-3.908
		c-2.229-1.769-3.971-4.002-5.223-6.703c-1.254-2.697-1.879-5.908-1.879-9.632c0-4.095,0.719-7.468,2.158-10.12
		s3.297-4.77,5.572-6.354c2.275-1.582,4.873-2.77,7.799-3.56s5.873-1.417,8.846-1.884c2.971-0.465,5.895-0.836,8.773-1.117
		c2.879-0.277,5.434-0.697,7.662-1.255c2.227-0.558,3.992-1.372,5.293-2.443s1.904-2.63,1.811-4.679
		c0-2.139-0.348-3.837-1.041-5.095c-0.693-1.255-1.619-2.233-2.777-2.93c-1.156-0.697-2.498-1.162-4.025-1.394
		c-1.525-0.232-3.168-0.352-4.926-0.352c-3.887,0-6.941,0.842-9.16,2.527c-2.221,1.684-3.518,4.492-3.887,8.419h-19.826
		C587.591,47.639,588.753,43.773,590.796,40.701z M629.827,68.679c-1.252,0.42-2.596,0.769-4.031,1.046
		c-1.438,0.277-2.945,0.51-4.52,0.697c-1.576,0.187-3.152,0.419-4.729,0.696c-1.484,0.277-2.943,0.648-4.381,1.113
		c-1.436,0.465-2.688,1.094-3.754,1.885s-1.924,1.788-2.572,2.995c-0.648,1.21-0.973,2.743-0.973,4.602
		c0,1.765,0.324,3.253,0.973,4.46c0.648,1.21,1.529,2.162,2.643,2.859c1.113,0.696,2.41,1.184,3.893,1.465
		c1.482,0.277,3.012,0.416,4.59,0.416c3.893,0,6.904-0.648,9.037-1.953c2.133-1.3,3.709-2.855,4.729-4.669
		c1.02-1.81,1.645-3.646,1.877-5.505c0.23-1.859,0.348-3.347,0.348-4.463v-7.387C632.12,67.679,631.077,68.26,629.827,68.679z"/>
	<path fill="#005C9B" d="M189.723,30.097v8.284h0.416c2.875-3.673,5.43-5.897,9.461-7.736c4.086-1.864,8.403-2.484,12.588-2.484
		c5.302,0,9.652,0.723,13.05,2.162c3.395,1.442,6.07,3.44,8.022,5.996c1.956,2.556,3.327,5.67,4.118,9.342s1.188,7.738,1.188,12.201
		V102.2h-19.827V61.47c0-5.95-0.933-10.391-2.794-13.321c-1.865-2.93-5.173-4.395-9.923-4.395c-5.402,0-9.316,1.607-11.737,4.814
		c-2.423,3.208-3.633,8.484-3.633,15.831V102.2h-19.723V30.097H189.723z"/>
	<path fill="#005C9B" d="M682.122,30.097v8.284h0.416c2.875-3.673,5.43-5.897,9.461-7.736c4.086-1.864,8.404-2.484,12.588-2.484
		c5.303,0,9.652,0.723,13.051,2.162c3.395,1.442,6.07,3.44,8.021,5.996c1.957,2.556,3.328,5.67,4.119,9.342
		c0.789,3.672,1.188,7.738,1.188,12.201V102.2h-19.828V61.47c0-5.95-0.932-10.391-2.793-13.321c-1.865-2.93-5.174-4.395-9.924-4.395
		c-5.402,0-9.316,1.607-11.736,4.814c-2.424,3.208-3.633,8.484-3.633,15.831V102.2h-19.725V30.097H682.122z"/>
	<path fill="#005C9B" d="M905.47,30.097v8.284h0.416c2.875-3.673,5.43-5.897,9.461-7.736c4.086-1.864,8.404-2.484,12.588-2.484
		c5.303,0,9.652,0.723,13.051,2.162c3.395,1.442,6.07,3.44,8.021,5.996c1.957,2.556,3.328,5.67,4.119,9.342
		c0.789,3.672,1.188,7.738,1.188,12.201V102.2h-19.828V61.47c0-5.95-0.932-10.391-2.793-13.321c-1.865-2.93-5.174-4.395-9.924-4.395
		c-5.402,0-9.316,1.607-11.736,4.814c-2.424,3.208-3.633,8.484-3.633,15.831V102.2h-19.725V30.097H905.47z"/>
	<path fill="#005C9B" d="M351.06,84.969c2.972,2.885,7.248,4.324,12.824,4.324c3.995,0,7.435-1.003,10.317-3.015
		c2.882-2.01,4.646-4.137,5.299-6.383h17.425c-2.788,8.662-7.064,14.854-12.827,18.578c-5.763,3.725-12.734,5.586-20.911,5.586
		c-5.67,0-10.781-0.906-15.338-2.721c-4.557-1.813-8.419-4.392-11.582-7.741c-3.166-3.35-5.609-7.348-7.332-11.997
		c-1.724-4.65-2.582-9.77-2.582-15.352c0-5.393,0.884-10.417,2.653-15.067c1.768-4.65,4.279-8.674,7.538-12.069
		c3.259-3.395,7.141-6.066,11.653-8.022c4.511-1.953,9.506-2.93,14.989-2.93c6.134,0,11.479,1.188,16.031,3.559
		c4.554,2.375,8.297,5.563,11.224,9.565s5.041,8.561,6.341,13.679c1.301,5.118,1.769,10.468,1.397,16.05h-52
		C346.458,77.434,348.084,82.087,351.06,84.969z M373.432,46.949c-2.369-2.611-5.97-3.917-10.801-3.917
		c-3.163,0-5.786,0.539-7.877,1.61c-2.091,1.071-3.766,2.401-5.021,3.985c-1.256,1.584-2.137,3.266-2.646,5.038
		c-0.513,1.771-0.813,3.356-0.907,4.753h32.202C377.453,53.383,375.804,49.559,373.432,46.949z"/>
	<path fill="#005C9B" d="M425.495,2.655V102.2h-19.827V2.655H425.495z"/>
	<path fill="#005C9B" d="M453.542,84.349c0.884,1.53,2.023,2.779,3.421,3.75c1.394,0.972,3.001,1.691,4.814,2.152
		c1.813,0.465,3.698,0.694,5.654,0.694c1.394,0,2.859-0.161,4.395-0.487s2.93-0.836,4.186-1.533s2.304-1.629,3.14-2.791
		c0.84-1.162,1.259-2.627,1.259-4.395c0-2.977-1.978-5.209-5.928-6.697c-3.953-1.486-9.461-2.979-16.528-4.465
		c-2.885-0.652-5.699-1.418-8.442-2.301c-2.743-0.885-5.183-2.047-7.322-3.489c-2.139-1.442-3.859-3.256-5.16-5.444
		c-1.304-2.185-1.952-4.86-1.952-8.022c0-4.65,0.907-8.461,2.72-11.44c1.813-2.975,4.208-5.324,7.183-7.044
		c2.975-1.72,6.325-2.93,10.045-3.627c3.721-0.697,7.532-1.049,11.44-1.049c3.905,0,7.696,0.375,11.369,1.117
		c3.672,0.745,6.951,2,9.836,3.769c2.881,1.768,5.275,4.118,7.184,7.047c1.906,2.93,3.045,6.628,3.42,11.095h-18.793
		c-0.281-3.831-1.724-6.422-4.332-7.777c-2.607-1.355-5.679-2.033-9.216-2.033c-1.116,0-2.326,0.071-3.63,0.209
		c-1.304,0.142-2.491,0.445-3.56,0.91c-1.071,0.465-1.978,1.139-2.724,2.023c-0.745,0.884-1.116,2.072-1.116,3.559
		c0,1.769,0.648,3.211,1.952,4.328c1.3,1.116,2.998,2.023,5.092,2.72c2.091,0.7,4.486,1.326,7.184,1.885
		c2.694,0.558,5.438,1.165,8.229,1.816c2.882,0.652,5.695,1.443,8.438,2.372c2.744,0.933,5.184,2.166,7.322,3.701
		c2.141,1.536,3.859,3.443,5.16,5.722c1.305,2.281,1.955,5.099,1.955,8.448c0,4.746-0.955,8.723-2.857,11.934
		c-1.908,3.211-4.396,5.795-7.465,7.748c-3.068,1.955-6.58,3.33-10.529,4.121c-3.953,0.787-7.974,1.184-12.065,1.184
		c-4.186,0-8.277-0.416-12.275-1.252c-3.999-0.836-7.555-2.227-10.668-4.176c-3.118-1.949-5.673-4.524-7.674-7.726
		c-1.998-3.201-3.091-7.216-3.275-12.043h18.794C452.219,80.993,452.658,82.823,453.542,84.349z"/>
	<path fill="#005C9B" d="M761.353,2.655v53.4l24.953-25.932h23.42l-27.184,26.49l30.25,45.587h-23.977l-19.795-32.201l-7.668,7.39
		V102.2h-19.826V2.655H761.353z"/>
	<path fill="#005C9B" d="M832.36,84.969c2.975,2.885,7.252,4.324,12.828,4.324c3.994,0,7.432-1.003,10.313-3.015
		c2.883-2.01,4.646-4.137,5.299-6.383h17.426c-2.787,8.662-7.064,14.854-12.824,18.578c-5.764,3.725-12.734,5.586-20.91,5.586
		c-5.67,0-10.785-0.906-15.342-2.721c-4.557-1.813-8.416-4.392-11.582-7.741c-3.164-3.35-5.607-7.348-7.328-11.997
		c-1.723-4.65-2.584-9.77-2.584-15.352c0-5.393,0.883-10.417,2.652-15.067c1.768-4.65,4.281-8.674,7.541-12.069
		c3.256-3.395,7.141-6.066,11.652-8.022c4.508-1.953,9.508-2.93,14.99-2.93c6.135,0,11.479,1.188,16.031,3.559
		c4.553,2.375,8.293,5.563,11.221,9.565c2.926,4.001,5.043,8.561,6.344,13.679s1.766,10.468,1.395,16.05h-52
		C827.763,77.434,829.388,82.087,832.36,84.969z M854.737,46.949c-2.373-2.611-5.975-3.917-10.805-3.917
		c-3.16,0-5.785,0.539-7.877,1.61s-3.764,2.401-5.018,3.985c-1.256,1.584-2.141,3.266-2.65,5.038
		c-0.51,1.771-0.813,3.356-0.906,4.753h32.205C858.757,53.383,857.104,49.559,854.737,46.949z"/>
	<path fill="#005C9B" d="M299.134,2.616v34.813h-0.207c-2.602-3.277-5.194-5.196-9.061-6.902c-4.076-1.798-8.003-2.404-12.282-2.404
		c-5.302,0-9.949,1.049-13.947,3.14c-3.998,2.094-7.325,4.86-9.975,8.303c-2.649,3.44-4.65,7.416-5.999,11.927
		c-1.349,4.511-2.02,9.188-2.02,14.021c0,5.025,0.671,9.861,2.02,14.512c1.346,4.65,3.343,8.768,5.993,12.347
		c2.646,3.582,6.015,6.419,10.104,8.513c4.089,2.092,8.826,3.116,14.215,3.137c3.5,0.014,8.323-0.449,12.125-2.017
		c3.824-1.578,6.907-3.508,9.757-7.372h0.277v7.575h18.826V2.616H299.134z M281.753,89.501c-13.067,0-18.563-12.135-18.563-23.438
		c0-11.852,4.767-23.369,18.578-23.369c13.665,0,18.108,11.517,18.108,23.233C299.876,77.786,295.716,89.501,281.753,89.501z"/>
	<path fill="#005C9B" d="M507.749,2.616v99.591h18.826v-7.575h0.277c2.85,3.864,5.933,5.794,9.756,7.372
		c3.804,1.567,8.626,2.03,12.126,2.017c5.389-0.021,10.126-1.045,14.215-3.137c4.089-2.094,7.458-4.931,10.104-8.513
		c2.649-3.579,4.647-7.696,5.993-12.347c1.348-4.65,2.02-9.486,2.02-14.512c0-4.833-0.672-9.51-2.02-14.021
		c-1.35-4.511-3.35-8.487-6-11.927c-2.648-3.443-5.977-6.209-9.975-8.303c-3.998-2.091-8.645-3.14-13.947-3.14
		c-4.278,0-8.205,0.606-12.281,2.404c-3.867,1.707-6.459,3.625-9.062,6.902h-0.206V2.616H507.749z M526.833,65.928
		c0-11.716,4.442-23.233,18.107-23.233c13.811,0,18.578,11.517,18.578,23.369c0,11.303-5.496,23.438-18.563,23.438
		C530.993,89.501,526.833,77.786,526.833,65.928z"/>
</g>
</svg>
