<svg width="796" height="831" viewBox="0 0 796 831" fill="none" xmlns="http://www.w3.org/2000/svg">
<path d="M794 547C802 642.333 762.333 710 675 750C587.666 790 498.166 815.833 406.5 827.5C314.833 839.167 237.833 811.5 175.5 744.5C113.166 677.5 63.4997 604 26.4997 524C-10.5003 444 -7.83364 366 34.4997 290C76.833 214 132.5 159 201.5 125C270.5 91 346.333 56.6667 429 22C511.666 -12.6667 595 -5.33334 679 44C763 93.3333 801.166 165.667 793.5 261C785.833 356.333 786 451.667 794 547Z" fill="#FFF3F9"/>
</svg>
