<svg width="732" height="857" viewBox="0 0 732 857" fill="none" xmlns="http://www.w3.org/2000/svg">
<path d="M731 560.502C735 653.168 695.833 722.502 613.5 768.502C531.167 814.502 443.333 842.835 350 853.502C256.667 864.168 170 841.502 90 785.502C10 729.502 -16.6667 654.835 10 561.502C36.6667 468.168 40.8333 377.835 22.5 290.502C4.16667 203.168 33.5 137.168 110.5 92.5018C187.5 47.8351 271.167 18.5018 361.5 4.50179C451.833 -9.49821 529 16.0018 593 81.0018C657 146.002 695 219.002 707 300.002C719 381.002 727 467.835 731 560.502Z" fill="#F2F3FF"/>
</svg>
