<svg width="730" height="855" viewBox="0 0 730 855" fill="none" xmlns="http://www.w3.org/2000/svg">
<path d="M728.5 565.002C734.833 654.002 701.5 730.502 628.5 794.502C555.5 858.502 475.5 871.335 388.5 833.002C301.5 794.668 233.667 749.502 185 697.502C136.333 645.502 88.1666 588.168 40.5 525.502C-7.16671 462.835 -12.6667 396.335 24 326.002C60.6666 255.668 103.833 183.002 153.5 108.002C203.167 33.0018 274.667 -2.8315 368 0.501828C461.333 3.83516 528 45.3352 568 125.002C608 204.668 643.167 275.668 673.5 338.002C703.833 400.335 722.167 476.002 728.5 565.002Z" fill="#F2F3FF"/>
</svg>
