<svg width="792" height="792" viewBox="0 0 792 792" fill="none" xmlns="http://www.w3.org/2000/svg">
<path d="M776 487.002C744.667 571.335 691.167 633.502 615.5 673.502C539.834 713.502 456.667 748.835 366 779.502C275.334 810.169 211.167 780.002 173.5 689.002C135.834 598.002 101.834 520.502 71.5003 456.502C41.167 392.502 18.667 312.169 4.0003 215.502C-10.6664 118.835 27.8336 55.0019 119.5 24.0019C211.167 -6.99811 293.334 -6.83144 366 24.5019C438.667 55.8352 502 88.6686 556 123.002C610 157.335 668 205.502 730 267.502C792 329.502 807.334 402.669 776 487.002Z" fill="#F2F3FF"/>
</svg>
