<svg width="703" height="874" viewBox="0 0 703 874" fill="none" xmlns="http://www.w3.org/2000/svg">
<path d="M683 555C671.667 623.667 643.333 699.5 598 782.5C552.667 865.5 485.667 891.5 397 860.5C308.333 829.5 230.667 792.167 164 748.5C97.3334 704.833 48.6667 644.5 18.0001 567.5C-12.6666 490.5 -1.99994 421.167 50.0001 359.5C102 297.833 146.5 224.333 183.5 139C220.5 53.6666 287.667 7.83331 385 1.49998C482.333 -4.83335 559.833 29.6666 617.5 105C675.167 180.333 703.333 257 702 335C700.667 413 694.333 486.333 683 555Z" fill="#FFF3F9"/>
</svg>
