<svg width="819" height="784" viewBox="0 0 819 784" fill="none" xmlns="http://www.w3.org/2000/svg">
<path d="M743.5 540.502C673.166 605.168 612 662.002 560 711.002C508 760.002 445.166 784.168 371.5 783.502C297.833 782.835 223.5 766.502 148.5 734.502C73.4996 702.502 35.333 646.002 33.9996 565.002C32.6663 484.002 22.9996 395.835 4.99965 300.502C-13.0004 205.169 18.9996 129.669 101 74.0018C183 18.3352 271.833 -5.66482 367.5 2.00185C463.166 9.66851 552.833 37.8352 636.5 86.5018C720.166 135.169 776.5 206.835 805.5 301.502C834.5 396.169 813.833 475.835 743.5 540.502Z" fill="#F2F3FF"/>
</svg>
