<svg width="732" height="857" viewBox="0 0 732 857" fill="none" xmlns="http://www.w3.org/2000/svg">
<path d="M731 560.502C735 653.168 695.833 722.502 613.5 768.502C531.167 814.502 443.333 842.835 350 853.502C256.667 864.168 170 841.502 90 785.502C10 729.502 -16.6667 654.835 10 561.502C36.6667 468.168 40.8333 377.835 22.5 290.502C4.16667 203.169 33.5 137.169 110.5 92.5019C187.5 47.8352 271.167 18.5019 361.5 4.50185C451.833 -9.49815 529 16.0019 593 81.0019C657 146.002 695 219.002 707 300.002C719 381.002 727 467.835 731 560.502Z" fill="#FFFAF2"/>
</svg>
