<svg width="792" height="791" viewBox="0 0 792 791" fill="none" xmlns="http://www.w3.org/2000/svg">
<path d="M776 486.5C744.667 570.833 691.167 633 615.5 673C539.834 713 456.667 748.333 366 779C275.334 809.667 211.167 779.5 173.5 688.5C135.834 597.5 101.834 520 71.5003 456C41.167 392 18.667 311.667 4.0003 215C-10.6664 118.333 27.8336 54.5 119.5 23.5C211.167 -7.5 293.334 -7.33334 366 24C438.667 55.3333 502 88.1667 556 122.5C610 156.833 668 205 730 267C792 329 807.334 402.167 776 486.5Z" fill="#FFF3F9"/>
</svg>
