<svg width="805" height="827" viewBox="0 0 805 827" fill="none" xmlns="http://www.w3.org/2000/svg">
<path d="M795.5 616C823.167 713.333 790.333 775.5 697 802.5C603.667 829.5 519.5 834.167 444.5 816.5C369.5 798.833 297.833 774.167 229.5 742.5C161.167 710.833 97.9999 657.5 39.9999 582.5C-18.0001 507.5 -12.5001 436.5 56.4999 369.5C125.5 302.5 180.5 224.167 221.5 134.5C262.5 44.8334 333.833 0.166687 435.5 0.500021C537.167 0.833354 604.167 49 636.5 145C668.833 241 696.5 319.167 719.5 379.5C742.5 439.833 767.833 518.667 795.5 616Z" fill="#FFF3F9"/>
</svg>
