<svg width="677" height="895" viewBox="0 0 677 895" fill="none" xmlns="http://www.w3.org/2000/svg">
<path d="M673.5 547.502C666.5 616.835 639.833 692.502 593.5 774.502C547.167 856.502 475.167 896.335 377.5 894.002C279.833 891.668 194.167 860.335 120.5 800.002C46.8334 739.668 12.5001 665.168 17.5001 576.502C22.5001 487.835 17.8334 395.835 3.5001 300.502C-10.8332 205.168 22.5001 127.835 103.5 68.5018C184.5 9.1685 272.333 -11.4982 367 6.50183C461.667 24.5018 530.833 70.0018 574.5 143.002C618.167 216.002 647.333 284.335 662 348.002C676.667 411.668 680.5 478.168 673.5 547.502Z" fill="#FFFAF2"/>
</svg>
