<svg width="703" height="873" viewBox="0 0 703 873" fill="none" xmlns="http://www.w3.org/2000/svg">
<path d="M683 554.502C671.667 623.169 643.333 699.002 598 782.002C552.667 865.002 485.667 891.002 397 860.002C308.333 829.002 230.667 791.669 164 748.002C97.3334 704.335 48.6667 644.002 18.0001 567.002C-12.6666 490.002 -1.99994 420.669 50.0001 359.002C102 297.335 146.5 223.835 183.5 138.502C220.5 53.1685 287.667 7.3352 385 1.00187C482.333 -5.33146 559.833 29.1685 617.5 104.502C675.167 179.835 703.333 256.502 702 334.502C700.667 412.502 694.333 485.835 683 554.502Z" fill="#F2F3FF"/>
</svg>
