<svg width="768" height="738" viewBox="0 0 768 738" fill="none" xmlns="http://www.w3.org/2000/svg">
<path d="M744 502.002C710 584.335 654.166 639.168 576.5 666.502C498.833 693.835 421.666 715.668 345 732.002C268.333 748.335 201.333 729.168 144 674.502C86.6664 619.835 51.6664 556.835 38.9998 485.502C26.3331 414.169 14.3331 334.002 2.99975 245.002C-8.33358 156.002 24.8331 87.5019 102.5 39.5019C180.166 -8.49815 257.166 -12.4981 333.5 27.5019C409.833 67.5019 486.166 96.8352 562.5 115.502C638.833 134.169 696.666 182.669 736 261.002C775.333 339.335 778 419.669 744 502.002Z" fill="#FFFAF2"/>
</svg>
