<svg width="805" height="827" viewBox="0 0 805 827" fill="none" xmlns="http://www.w3.org/2000/svg">
<path d="M795.5 615.502C823.167 712.835 790.333 775.002 697 802.002C603.667 829.002 519.5 833.668 444.5 816.002C369.5 798.335 297.833 773.668 229.5 742.002C161.167 710.335 97.9999 657.002 39.9999 582.002C-18.0001 507.002 -12.5001 436.002 56.4999 369.002C125.5 302.002 180.5 223.669 221.5 134.002C262.5 44.3352 333.833 -0.331481 435.5 0.00185185C537.167 0.335185 604.167 48.5018 636.5 144.502C668.833 240.502 696.5 318.669 719.5 379.002C742.5 439.335 767.833 518.168 795.5 615.502Z" fill="#FFFAF2"/>
</svg>
