<svg width="730" height="856" viewBox="0 0 730 856" fill="none" xmlns="http://www.w3.org/2000/svg">
<path d="M728.5 565.5C734.833 654.5 701.5 731 628.5 795C555.5 859 475.5 871.833 388.5 833.5C301.5 795.167 233.667 750 185 698C136.333 646 88.1666 588.667 40.5 526C-7.16671 463.333 -12.6667 396.833 24 326.5C60.6666 256.167 103.833 183.5 153.5 108.5C203.167 33.5 274.667 -2.33334 368 0.999997C461.333 4.33333 528 45.8333 568 125.5C608 205.167 643.167 276.167 673.5 338.5C703.833 400.833 722.167 476.5 728.5 565.5Z" fill="#FFF3F9"/>
</svg>
