<svg width="819" height="784" viewBox="0 0 819 784" fill="none" xmlns="http://www.w3.org/2000/svg">
<path d="M743.5 540C673.166 604.667 612 661.5 560 710.5C508 759.5 445.166 783.667 371.5 783C297.833 782.333 223.5 766 148.5 734C73.4996 702 35.333 645.5 33.9996 564.5C32.6663 483.5 22.9996 395.333 4.99965 300C-13.0004 204.667 18.9996 129.167 101 73.5C183 17.8333 271.833 -6.16665 367.5 1.50002C463.166 9.16668 552.833 37.3333 636.5 86C720.166 134.667 776.5 206.333 805.5 301C834.5 395.667 813.833 475.333 743.5 540Z" fill="#FFF3F9"/>
</svg>
