<svg width="796" height="830" viewBox="0 0 796 830" fill="none" xmlns="http://www.w3.org/2000/svg">
<path d="M794 546.502C802 641.835 762.333 709.502 675 749.502C587.666 789.502 498.166 815.335 406.5 827.002C314.833 838.668 237.833 811.002 175.5 744.002C113.166 677.002 63.4997 603.502 26.4997 523.502C-10.5003 443.502 -7.83364 365.502 34.4997 289.502C76.833 213.502 132.5 158.502 201.5 124.502C270.5 90.5018 346.333 56.1685 429 21.5018C511.666 -13.1648 595 -5.83151 679 43.5018C763 92.8352 801.166 165.168 793.5 260.502C785.833 355.835 786 451.168 794 546.502Z" fill="#FFFAF2"/>
</svg>
