<svg width="677" height="895" viewBox="0 0 677 895" fill="none" xmlns="http://www.w3.org/2000/svg">
<path d="M673.5 548C666.5 617.333 639.833 693 593.5 775C547.167 857 475.167 896.833 377.5 894.5C279.833 892.167 194.167 860.833 120.5 800.5C46.8334 740.167 12.5001 665.667 17.5001 577C22.5001 488.333 17.8334 396.333 3.5001 301C-10.8332 205.667 22.5001 128.333 103.5 69C184.5 9.66667 272.333 -11 367 7C461.667 25 530.833 70.5 574.5 143.5C618.167 216.5 647.333 284.833 662 348.5C676.667 412.167 680.5 478.667 673.5 548Z" fill="#FFF3F9"/>
</svg>
