<svg width="768" height="739" viewBox="0 0 768 739" fill="none" xmlns="http://www.w3.org/2000/svg">
<path d="M744 502.5C710 584.833 654.166 639.667 576.5 667C498.833 694.333 421.666 716.167 345 732.5C268.333 748.833 201.333 729.667 144 675C86.6664 620.333 51.6664 557.333 38.9998 486C26.3331 414.667 14.3331 334.5 2.99975 245.5C-8.33358 156.5 24.8331 88 102.5 40C180.166 -7.99998 257.166 -12 333.5 28C409.833 68 486.166 97.3334 562.5 116C638.833 134.667 696.666 183.167 736 261.5C775.333 339.833 778 420.167 744 502.5Z" fill="#FFF3F9"/>
</svg>
