<?xml version="1.0" standalone="no"?>
<!DOCTYPE svg PUBLIC "-//W3C//DTD SVG 20010904//EN"
 "http://www.w3.org/TR/2001/REC-SVG-20010904/DTD/svg10.dtd">
<svg version="1.0" xmlns="http://www.w3.org/2000/svg"
 width="512.000000pt" height="512.000000pt" viewBox="0 0 512.000000 512.000000"
 preserveAspectRatio="xMidYMid meet">
<metadata>
Created by potrace 1.14, written by Peter Selinger 2001-2017
</metadata>
<g transform="translate(0.000000,512.000000) scale(0.100000,-0.100000)"
fill="#000000" stroke="none">
<path d="M2355 4863 c-719 -63 -1358 -440 -1750 -1033 -202 -306 -316 -604
-371 -970 -22 -140 -24 -469 -6 -610 59 -444 247 -872 531 -1211 80 -96 300
-313 309 -304 2 2 -5 24 -17 48 -15 32 -23 72 -27 153 -7 120 -21 160 -74 209
-66 61 -129 189 -145 290 -3 22 -20 80 -37 129 l-31 88 22 17 c16 12 21 25 19
45 -4 33 32 66 75 69 15 1 31 7 35 13 4 7 16 13 27 16 15 3 20 11 20 38 0 19
5 44 11 54 10 16 2 31 -53 100 -35 45 -66 92 -69 106 -3 14 -17 50 -31 82 -26
57 -27 76 -8 163 6 25 -1 42 -40 99 l-47 69 5 71 c5 63 3 74 -17 96 -30 34
-51 135 -51 251 0 90 2 99 28 135 15 22 43 91 63 154 44 144 71 215 100 262
13 20 26 49 30 65 6 25 5 26 -8 13 -9 -8 -39 -60 -68 -115 -76 -145 -103 -190
-107 -178 -4 12 64 150 189 384 50 92 100 168 156 237 77 92 89 103 150 128
152 61 195 85 250 138 37 35 87 69 142 95 47 22 126 70 175 106 50 36 106 74
126 85 43 23 109 94 109 118 0 9 -7 30 -16 47 -9 17 -13 40 -9 55 l7 25 25
-29 25 -30 50 28 c35 20 70 30 115 34 63 5 65 4 58 -16 -10 -32 3 -46 25 -27
10 9 38 19 62 22 l43 6 -24 -27 c-31 -33 -24 -40 23 -21 53 22 68 17 72 -26 4
-46 -10 -63 -62 -77 -22 -6 -64 -29 -93 -49 -58 -41 -63 -56 -61 -170 1 -34
-5 -47 -26 -65 -26 -23 -54 -68 -54 -87 0 -5 10 -11 23 -13 19 -3 23 -11 27
-54 3 -28 11 -58 19 -67 11 -15 18 -13 65 13 54 31 96 39 96 19 0 -6 -17 -27
-37 -45 -20 -19 -31 -34 -25 -34 10 0 10 -5 2 -21 -15 -27 -8 -32 24 -17 23
10 29 9 37 -3 13 -21 11 -39 -4 -39 -8 0 -24 -11 -37 -25 -27 -28 -55 -32 -96
-11 -15 8 -31 13 -35 10 -5 -3 -62 -7 -128 -9 -128 -4 -166 -15 -158 -45 3
-11 -5 -27 -20 -40 -23 -20 -24 -23 -8 -40 13 -15 15 -29 10 -73 -6 -43 -4
-61 9 -79 22 -31 20 -55 -5 -68 -22 -12 -59 -67 -59 -87 0 -22 37 -14 69 13
17 14 31 35 31 46 0 14 6 19 23 18 61 -5 77 0 94 33 10 17 18 43 18 57 0 19 6
26 25 28 14 2 42 20 62 39 33 32 39 35 55 22 28 -22 42 -42 43 -62 0 -9 6 -26
13 -38 10 -17 9 -22 -11 -38 -34 -25 -28 -75 9 -79 14 -2 31 4 39 12 33 41 39
1 14 -103 l-16 -66 31 -59 c41 -76 40 -106 -4 -155 -39 -43 -45 -75 -15 -91
30 -16 24 -32 -18 -57 l-38 -22 -44 38 c-49 42 -50 66 -3 77 31 7 73 41 73 59
0 8 -16 11 -50 7 -45 -4 -56 -1 -105 32 -60 39 -67 41 -97 25 -20 -11 -20 -11
3 -23 32 -16 36 -52 8 -74 -18 -15 -20 -22 -10 -39 6 -12 21 -25 33 -29 38
-11 49 -24 37 -45 -8 -16 -22 -19 -94 -19 -84 0 -85 0 -85 25 0 22 4 25 37 25
59 0 26 18 -47 25 -81 8 -120 -4 -120 -39 0 -32 -16 -41 -46 -27 -13 6 -35 16
-48 22 -34 16 -59 5 -125 -57 -75 -69 -111 -84 -205 -84 -90 0 -96 -6 -122
-116 -26 -108 -84 -154 -84 -67 0 20 7 66 16 101 15 60 15 67 0 93 -9 15 -16
35 -16 45 0 19 -46 84 -59 84 -5 0 -11 -9 -14 -21 -8 -29 -24 -15 -37 30 -13
48 -47 80 -94 88 -30 5 -39 2 -56 -19 -10 -14 -33 -31 -49 -38 -72 -30 -119
-248 -71 -328 l21 -33 30 25 c41 35 71 33 104 -5 30 -37 29 -59 -3 -75 -12 -6
-33 -21 -45 -32 -12 -11 -34 -25 -49 -31 -47 -18 -28 -65 33 -85 27 -9 36 -18
43 -47 12 -50 1 -101 -34 -144 -17 -21 -30 -50 -30 -64 0 -52 20 -100 49 -117
16 -9 42 -39 57 -65 30 -51 58 -63 67 -29 4 16 14 20 46 20 23 0 41 -4 41 -10
0 -5 15 -10 34 -10 39 0 55 -14 31 -28 -25 -13 -7 -42 25 -42 44 0 58 -9 70
-45 8 -23 22 -37 50 -50 26 -12 40 -25 40 -37 0 -13 7 -18 29 -18 21 0 32 -6
36 -21 4 -11 17 -24 30 -29 15 -6 27 -22 33 -44 6 -19 21 -50 35 -68 14 -19
24 -46 24 -65 0 -18 6 -39 13 -48 19 -23 85 -55 113 -55 46 0 119 -102 110
-155 -4 -27 -2 -34 16 -40 31 -10 26 -22 -19 -45 -39 -20 -56 -38 -23 -26 17
7 83 -11 83 -23 0 -3 -8 -17 -17 -31 -16 -23 -16 -23 3 -15 48 20 74 17 111
-11 20 -16 41 -32 46 -35 5 -4 4 -16 -3 -29 -11 -21 -11 -22 11 -17 43 12 202
-65 253 -122 11 -11 27 -21 37 -21 30 0 49 -29 49 -73 0 -52 -12 -71 -38 -65
-12 4 -43 -6 -76 -23 -30 -16 -62 -26 -70 -23 -12 5 -16 0 -16 -18 0 -26 -40
-87 -83 -126 -47 -44 -86 -50 -184 -30 -48 10 -100 18 -115 18 -26 0 -26 0
-21 -60 5 -48 2 -64 -11 -79 -16 -17 -14 -19 26 -34 147 -54 337 -100 501
-122 154 -20 450 -20 604 0 212 28 460 98 643 181 l75 34 -43 -38 -43 -37 27
-38 c15 -22 31 -36 39 -33 25 9 217 150 314 230 123 102 377 356 465 466 407
509 606 1091 606 1770 0 497 -100 927 -316 1359 -112 225 -277 479 -414 641
l-30 34 -124 -119 c-68 -66 -126 -127 -130 -136 -5 -12 17 -48 70 -117 42 -56
73 -106 69 -111 -3 -6 1 -14 9 -17 36 -14 193 -279 278 -469 165 -369 243
-717 255 -1132 3 -117 4 -213 1 -213 -3 0 -19 5 -37 11 -33 12 -40 24 -17 32
35 14 38 148 6 232 -10 27 -11 27 -30 10 -11 -10 -22 -27 -26 -39 -18 -59 -64
-72 -112 -31 -41 34 -48 68 -22 109 11 19 20 43 20 56 0 26 39 100 53 100 20
0 77 52 77 70 0 24 -46 60 -76 60 -17 0 -26 10 -39 45 -10 24 -21 42 -26 40
-17 -11 -19 -62 -4 -91 8 -16 15 -37 15 -46 0 -25 -25 -22 -36 3 -10 21 -11
21 -28 4 -23 -23 -19 -112 7 -164 24 -47 21 -80 -8 -107 -32 -30 -35 -86 -4
-108 33 -22 21 -51 -21 -51 -31 0 -38 5 -61 49 -23 43 -34 52 -94 77 -37 15
-75 35 -85 44 -9 8 -21 15 -26 15 -17 0 -33 -22 -27 -37 8 -19 91 -75 102 -68
5 3 13 0 17 -6 3 -6 22 -17 40 -25 32 -14 50 -40 19 -28 -18 7 -19 0 -4 -27 7
-15 7 -24 -2 -35 -17 -21 -29 -17 -29 10 0 26 -16 36 -57 36 -14 0 -47 17 -75
40 -28 22 -54 40 -58 40 -21 0 -40 -14 -40 -29 0 -28 -20 -40 -58 -34 l-35 6
6 -36 c4 -25 1 -39 -9 -48 -39 -32 -57 -72 -55 -119 2 -65 -28 -116 -72 -123
-18 -2 -32 -4 -33 -3 -1 0 3 33 8 71 5 39 12 172 16 297 l7 226 27 21 c22 18
26 27 22 54 -5 26 0 37 25 61 36 35 37 42 11 76 -13 16 -20 41 -20 69 0 44 0
44 21 26 14 -13 19 -29 17 -50 -3 -30 -3 -30 46 -29 43 0 53 5 76 32 15 18 34
32 43 32 22 0 21 22 -3 70 -24 47 -25 60 -5 60 20 0 19 10 -5 40 -26 34 -25
49 7 82 15 15 22 28 17 28 -6 0 -21 -11 -34 -25 -28 -30 -45 -31 -86 -6 -26
16 -32 27 -43 87 -15 87 -24 103 -45 85 -18 -15 -21 -42 -5 -58 5 -5 13 -35
16 -65 6 -60 14 -74 56 -102 23 -14 28 -23 24 -44 -3 -15 1 -39 10 -55 8 -15
13 -45 11 -65 -4 -51 -37 -56 -66 -10 -12 18 -30 39 -42 46 -18 11 -22 9 -32
-13 -9 -19 -16 -24 -32 -19 -35 10 -47 29 -62 90 -12 48 -12 71 -2 122 10 51
9 77 -2 135 -16 86 -16 98 -2 160 13 65 28 79 51 49 l17 -24 18 27 c17 25 22
27 64 21 47 -6 82 -29 82 -53 0 -7 -9 -13 -21 -13 -14 0 -19 -5 -17 -17 2 -13
13 -18 33 -18 32 0 32 0 21 61 -6 28 -17 46 -37 60 -34 22 -37 34 -9 34 20 0
20 1 4 25 -15 22 -15 31 -4 64 9 29 10 43 1 60 -10 17 -9 26 4 43 23 34 19 38
-34 38 -44 0 -54 4 -85 37 -19 21 -33 39 -32 41 7 7 138 -29 161 -44 30 -20
32 -12 5 26 -16 22 -29 28 -75 33 -37 4 -73 16 -103 35 -26 15 -64 37 -85 48
-21 10 -57 39 -80 64 -35 37 -49 46 -87 50 -39 5 -45 8 -43 28 2 12 -2 22 -7
22 -6 0 -10 5 -10 10 0 6 12 10 26 10 33 0 25 12 -44 60 -31 22 -71 51 -88 65
-22 18 -56 30 -117 41 l-86 16 -58 71 c-32 39 -61 76 -65 81 -4 7 -27 -8 -57
-38 -44 -43 -53 -48 -81 -42 -17 3 -74 -1 -127 -9 -52 -9 -125 -15 -161 -13
-37 1 -75 -1 -85 -6 -16 -8 -18 -5 -15 20 3 26 7 29 43 32 61 4 72 10 49 27
-19 13 -19 14 1 20 11 4 36 13 55 22 19 8 61 18 93 21 55 5 57 6 41 23 -15 17
-32 19 -153 17 -75 -1 -154 -3 -176 -5z m120 -572 c3 -5 1 -12 -5 -16 -5 -3
-10 1 -10 9 0 18 6 21 15 7z m-9 -55 c10 -20 9 -26 -4 -31 -21 -8 -57 36 -39
47 20 13 32 9 43 -16z m-72 -102 c24 -9 19 -22 -15 -40 -36 -18 -51 -9 -38 24
8 22 24 27 53 16z m156 -54 c0 -52 -2 -60 -19 -60 -37 0 -44 80 -9 104 12 9
24 16 25 16 2 0 3 -27 3 -60z m483 -128 c63 -123 90 -220 85 -306 -3 -44 -7
-53 -36 -73 -24 -16 -42 -20 -63 -16 -23 4 -36 0 -57 -19 -47 -44 -77 -59
-108 -53 -28 6 -30 3 -67 -74 -43 -89 -58 -98 -98 -55 -14 15 -31 23 -41 21
-16 -5 -18 4 -18 87 0 75 4 99 22 131 12 23 21 60 22 85 1 44 2 45 36 50 l35
5 -24 22 -23 22 21 27 c11 15 21 32 21 38 0 32 -25 91 -46 111 -25 23 -25 23
-5 30 14 4 21 15 21 30 0 21 3 23 35 18 25 -4 43 0 67 16 26 17 46 20 98 18
l65 -2 58 -113z m-527 43 c26 -24 27 -27 15 -66 -11 -37 -11 -43 8 -63 26 -27
26 -32 1 -63 -15 -20 -20 -41 -20 -89 0 -56 -2 -64 -18 -64 -11 0 -27 9 -37
20 -27 30 -36 25 -34 -18 2 -21 -1 -43 -5 -50 -12 -20 -26 -14 -26 12 0 30 -9
56 -20 56 -4 0 -13 -13 -20 -30 -18 -43 -28 -37 -36 22 -5 37 -14 59 -33 76
l-26 24 45 -2 c85 -5 90 -3 110 43 10 23 22 55 26 70 5 24 4 28 -12 25 -15 -2
-20 4 -22 34 -3 29 2 43 22 63 32 31 48 31 82 0z m-1408 -1411 c30 -20 57 -76
82 -165 25 -91 25 -87 -4 -82 -29 6 -46 41 -46 94 0 36 -6 47 -57 96 -45 43
-54 56 -43 64 22 13 43 11 68 -7z m3467 -108 c40 -17 40 -12 25 -171 -30 -322
-113 -627 -245 -903 -76 -157 -112 -220 -213 -365 l-76 -108 -17 33 c-28 52
-24 96 14 154 46 70 50 82 27 94 -29 15 -72 12 -113 -9 l-38 -19 -9 24 c-14
37 -48 30 -128 -26 -62 -44 -84 -53 -168 -70 -53 -11 -100 -22 -104 -25 -11
-7 -92 13 -144 35 -35 15 -41 22 -66 93 l-27 76 40 68 c131 223 247 533 302
806 l22 112 45 5 c32 4 61 17 99 46 48 36 218 124 239 124 14 0 40 -68 40
-106 0 -20 7 -45 15 -54 15 -16 20 -16 66 -3 41 12 59 13 96 3 58 -14 66 -6
73 68 l5 57 40 9 c53 11 112 36 126 53 15 17 31 17 74 -1z m-3254 -233 c23
-25 45 -72 52 -108 l6 -31 -59 28 c-32 16 -73 45 -91 66 l-33 37 27 3 c15 2
32 12 37 23 12 21 32 16 61 -18z"/>
<path d="M2820 4830 c0 -23 1 -23 53 -11 31 8 62 3 150 -20 62 -16 128 -28
147 -28 l35 1 -45 15 c-57 18 -276 62 -312 63 -21 0 -28 -5 -28 -20z"/>
</g>
</svg>
